<svg width="30" height="30" viewBox="0 0 30 30" fill="none" xmlns="http://www.w3.org/2000/svg">
<path d="M17.8905 7.45481H16.5861L14.7079 14.0001H16.0122C17.2122 14.0001 17.6061 14.9079 17.0844 16.7262C16.5626 18.5444 15.6522 19.4549 14.4522 19.4549C13.2522 19.4549 12.8583 18.5444 13.38 16.7262L16.8209 4.7261C17.254 3.22088 16.3826 2 14.8748 2H11.0583L6.83478 16.7262C5.06085 22.9088 7.45565 26.0001 12.5765 26.0001C17.6974 26.0001 21.8609 22.9088 23.6296 16.7262C25.3983 10.5435 23.0218 7.45481 17.8905 7.45481Z" fill="#FF8200"/>
<path d="M8.94731 7.45483H7.31165L6.21599 11.274C5.89512 12.3905 6.29425 13.3609 7.13686 13.7705L8.94731 7.45483Z" fill="#FF8200"/>
</svg>
