<svg width="24" height="24" viewBox="0 0 24 24" fill="none" xmlns="http://www.w3.org/2000/svg">
	<path fill-rule="evenodd" clip-rule="evenodd"
		  d="M5.53645 4.2636C5.18496 3.91213 4.6151 3.91213 4.26361 4.2636C3.91213 4.61506 3.91213 5.18489 4.26361 5.53635L10.7284 12.0007L4.26366 18.4651C3.91218 18.8165 3.91218 19.3864 4.26366 19.7378C4.61515 20.0893 5.18501 20.0893 5.5365 19.7378L12.0013 13.2735L18.466 19.7378C18.8175 20.0893 19.3874 20.0893 19.7389 19.7378C20.0903 19.3864 20.0903 18.8165 19.7389 18.4651L13.2741 12.0007L19.7389 5.53635C20.0904 5.18489 20.0904 4.61506 19.7389 4.2636C19.3874 3.91213 18.8176 3.91213 18.4661 4.2636L12.0013 10.728L5.53645 4.2636Z"
		  fill="#1C2028"/>
</svg>